<svg width="17" height="16" viewBox="0 0 17 16" fill="none" xmlns="http://www.w3.org/2000/svg">
<g clip-path="url(#clip0_44_4277)">
<path fill-rule="evenodd" clip-rule="evenodd" d="M2.76036 0H14.2396C14.839 0.000385322 15.4137 0.238654 15.8375 0.662471C16.2613 1.08629 16.4996 1.661 16.5 2.26036V13.7396C16.4996 14.339 16.2613 14.9137 15.8375 15.3375C15.4137 15.7613 14.839 15.9996 14.2396 16H2.76036C2.161 15.9996 1.58629 15.7613 1.16247 15.3375C0.738654 14.9137 0.500385 14.339 0.5 13.7396L0.5 2.26036C0.500385 1.661 0.738654 1.08629 1.16247 0.662471C1.58629 0.238654 2.161 0.000385322 2.76036 0ZM4.34945 15.2727H2.63382C1.85782 15.2727 1.22727 14.5949 1.22727 13.7622V12.1505L4.34945 15.2727ZM8.71309 15.2727H5.37782L1.22727 11.1222V7.78691L8.71309 15.2727ZM13.0767 15.2727H9.74146L1.22727 6.75855V3.42327L13.0767 15.2727ZM15.7727 13.7622C15.7727 14.5956 15.1415 15.2727 14.3662 15.2727H14.1051L1.22727 2.39491V2.23782C1.22727 1.40436 1.85855 0.727273 2.63382 0.727273H2.89491L15.7727 13.6051V13.7622ZM15.7727 12.5767L3.92327 0.727273H7.25855L15.7727 9.24146V12.5767ZM15.7727 3.84945V2.23782C15.7727 1.40509 15.1422 0.727273 14.3662 0.727273H12.6505L15.7727 3.84945ZM15.7727 4.87782V8.21309L8.28691 0.727273H11.6222L15.7727 4.87782Z" fill="#2D2D2D"/>
</g>
<defs>
<clipPath id="clip0_44_4277">
<rect width="16" height="16" fill="white" transform="translate(0.5)"/>
</clipPath>
</defs>
</svg>
