<svg width="150" height="150" viewBox="0 0 150 150" fill="none" xmlns="http://www.w3.org/2000/svg">
<circle cx="75" cy="75" r="72.5" fill="white" stroke="#744F30" stroke-width="5"/>
<path d="M98.5 113.188H63.25C60.9128 113.187 58.6713 112.259 57.0186 110.606C55.366 108.954 54.4375 106.712 54.4375 104.375V57.375C54.4375 55.0378 55.366 52.7963 57.0186 51.1436C58.6713 49.491 60.9128 48.5625 63.25 48.5625H98.5C100.837 48.5625 103.079 49.491 104.731 51.1436C106.384 52.7963 107.312 55.0378 107.312 57.375V104.375C107.312 106.712 106.384 108.954 104.731 110.606C103.079 112.259 100.837 113.187 98.5 113.188ZM63.25 54.4375C62.4709 54.4375 61.7238 54.747 61.1729 55.2979C60.622 55.8488 60.3125 56.5959 60.3125 57.375V104.375C60.3125 105.154 60.622 105.901 61.1729 106.452C61.7238 107.003 62.4709 107.312 63.25 107.312H98.5C99.2791 107.312 100.026 107.003 100.577 106.452C101.128 105.901 101.438 105.154 101.438 104.375V57.375C101.438 56.5959 101.128 55.8488 100.577 55.2979C100.026 54.747 99.2791 54.4375 98.5 54.4375H63.25Z" fill="#744F30"/>
<path d="M45.625 83.8125C44.8459 83.8125 44.0988 83.503 43.5479 82.9521C42.997 82.4012 42.6875 81.6541 42.6875 80.875V45.625C42.6875 43.2878 43.616 41.0463 45.2686 39.3936C46.9213 37.741 49.1628 36.8125 51.5 36.8125H80.875C81.6541 36.8125 82.4012 37.122 82.9521 37.6729C83.503 38.2238 83.8125 38.9709 83.8125 39.75C83.8125 40.5291 83.503 41.2762 82.9521 41.8271C82.4012 42.378 81.6541 42.6875 80.875 42.6875H51.5C50.7209 42.6875 49.9738 42.997 49.4229 43.5479C48.872 44.0988 48.5625 44.8459 48.5625 45.625V80.875C48.5625 81.6541 48.253 82.4012 47.7021 82.9521C47.1512 83.503 46.4041 83.8125 45.625 83.8125Z" fill="#744F30"/>
</svg>
