<svg width="17" height="16" viewBox="0 0 17 16" fill="none" xmlns="http://www.w3.org/2000/svg">
<g clip-path="url(#clip0_44_4282)">
<path d="M6.89999 6.93311H1.56666C1.27211 6.93311 1.03333 7.17189 1.03333 7.46644V14.9331C1.03333 15.2277 1.27211 15.4664 1.56666 15.4664H6.89999C7.19454 15.4664 7.43333 15.2277 7.43333 14.9331V7.46644C7.43333 7.17189 7.19454 6.93311 6.89999 6.93311Z" stroke="black" stroke-width="0.7" stroke-linecap="round" stroke-linejoin="round"/>
<path d="M15.4333 0.533203H10.1C9.80543 0.533203 9.56665 0.771985 9.56665 1.06654V8.5332C9.56665 8.82775 9.80543 9.06654 10.1 9.06654H15.4333C15.7279 9.06654 15.9667 8.82775 15.9667 8.5332V1.06654C15.9667 0.771985 15.7279 0.533203 15.4333 0.533203Z" stroke="black" stroke-width="0.7" stroke-linecap="round" stroke-linejoin="round"/>
<path d="M15.4333 11.1997H10.1C9.80543 11.1997 9.56665 11.4385 9.56665 11.733V14.933C9.56665 15.2276 9.80543 15.4664 10.1 15.4664H15.4333C15.7279 15.4664 15.9667 15.2276 15.9667 14.933V11.733C15.9667 11.4385 15.7279 11.1997 15.4333 11.1997Z" stroke="black" stroke-width="0.7" stroke-linecap="round" stroke-linejoin="round"/>
<path d="M6.89999 0.533203H1.56666C1.27211 0.533203 1.03333 0.771985 1.03333 1.06654V4.26654C1.03333 4.56109 1.27211 4.79987 1.56666 4.79987H6.89999C7.19454 4.79987 7.43333 4.56109 7.43333 4.26654V1.06654C7.43333 0.771985 7.19454 0.533203 6.89999 0.533203Z" stroke="black" stroke-width="0.7" stroke-linecap="round" stroke-linejoin="round"/>
</g>
<defs>
<clipPath id="clip0_44_4282">
<rect width="16" height="16" fill="white" transform="translate(0.5)"/>
</clipPath>
</defs>
</svg>
