<svg width="150" height="150" viewBox="0 0 150 150" fill="none" xmlns="http://www.w3.org/2000/svg">
<circle cx="75" cy="75" r="72.5" fill="white" stroke="#744F30" stroke-width="5"/>
<path d="M90.04 115.146H59.96C56.9505 115.102 54.0683 113.924 51.8898 111.848C49.7114 109.771 48.3971 106.948 48.21 103.944L44.6458 49.7375C44.6275 49.3445 44.6873 48.9518 44.8218 48.582C44.9562 48.2123 45.1627 47.8728 45.4291 47.5834C45.7036 47.2834 46.036 47.042 46.4062 46.8737C46.7764 46.7054 47.1768 46.6137 47.5833 46.6042H102.417C102.819 46.6033 103.218 46.6853 103.588 46.845C103.958 47.0047 104.291 47.2387 104.566 47.5326C104.842 47.8265 105.054 48.1739 105.189 48.5532C105.325 48.9325 105.381 49.3356 105.354 49.7375L101.947 103.944C101.757 106.975 100.421 109.82 98.2095 111.901C95.9977 113.981 93.0766 115.142 90.04 115.146ZM50.8733 52.4792L53.8891 103.592C53.9888 105.133 54.6721 106.578 55.8 107.633C56.9279 108.689 58.4155 109.274 59.96 109.271H90.04C91.5817 109.265 93.0642 108.676 94.1901 107.623C95.316 106.57 96.0021 105.13 96.1108 103.592L99.2833 52.675L50.8733 52.4792Z" fill="#744F30"/>
<path d="M110.25 52.4792H39.75C38.9709 52.4792 38.2238 52.1697 37.6729 51.6188C37.122 51.0679 36.8125 50.3208 36.8125 49.5417C36.8125 48.7626 37.122 48.0154 37.6729 47.4646C38.2238 46.9137 38.9709 46.6042 39.75 46.6042H110.25C111.029 46.6042 111.776 46.9137 112.327 47.4646C112.878 48.0154 113.188 48.7626 113.188 49.5417C113.188 50.3208 112.878 51.0679 112.327 51.6188C111.776 52.1697 111.029 52.4792 110.25 52.4792Z" fill="#744F30"/>
<path d="M86.75 52.4792H63.25C62.4741 52.469 61.7328 52.1563 61.1841 51.6076C60.6354 51.0589 60.3226 50.3176 60.3125 49.5417V42.4917C60.3622 40.4817 61.1828 38.5678 62.6044 37.1461C64.0261 35.7244 65.94 34.9038 67.95 34.8542H82.05C84.0934 34.9053 86.0359 35.7531 87.4628 37.2166C88.8898 38.6802 89.6881 40.6435 89.6875 42.6875V49.5417C89.6774 50.3176 89.3646 51.0589 88.8159 51.6076C88.2672 52.1563 87.5259 52.469 86.75 52.4792ZM66.1875 46.6042H83.8125V42.6875C83.8125 42.2201 83.6268 41.7718 83.2963 41.4412C82.9657 41.1107 82.5174 40.925 82.05 40.925H67.95C67.4826 40.925 67.0343 41.1107 66.7037 41.4412C66.3732 41.7718 66.1875 42.2201 66.1875 42.6875V46.6042Z" fill="#744F30"/>
</svg>
