<svg width="17" height="16" viewBox="0 0 17 16" fill="none" xmlns="http://www.w3.org/2000/svg">
<path d="M15.1671 8.07825C15.1671 4.35323 12.1474 1.3335 8.42236 1.3335C5.39902 1.3335 2.84028 3.32273 1.98358 6.06376C1.9287 6.23935 1.90127 6.32714 1.90385 6.43692C1.90596 6.52619 1.93309 6.63647 1.97265 6.71652C2.02129 6.81497 2.0964 6.89008 2.24661 7.04028L9.46061 14.254C9.61082 14.4042 9.68593 14.4793 9.78439 14.5279C9.86444 14.5675 9.97472 14.5946 10.064 14.5967C10.1738 14.5993 10.2616 14.5718 10.4371 14.5169C13.178 13.6602 15.1671 11.1015 15.1671 8.07825Z" stroke="black" stroke-width="0.7" stroke-linecap="round" stroke-linejoin="round"/>
<path d="M2.79791 6.48956C2.95824 6.47816 3.12013 6.47236 3.28337 6.47236C7.00839 6.47236 10.0281 9.49209 10.0281 13.2171C10.0281 13.3804 10.0223 13.5422 10.0109 13.7026C9.991 13.9827 9.98103 14.1228 9.89938 14.2093C9.83306 14.2795 9.71989 14.3218 9.62375 14.3121C9.50539 14.3003 9.39775 14.1926 9.18246 13.9773L2.52313 7.31802C2.30785 7.10273 2.2002 6.99509 2.18834 6.87673C2.17871 6.78059 2.22095 6.66742 2.29121 6.6011C2.37771 6.51945 2.51778 6.50948 2.79791 6.48956Z" stroke="black" stroke-width="0.7" stroke-linecap="round" stroke-linejoin="round"/>
</svg>
