<svg width="17" height="16" viewBox="0 0 17 16" fill="none" xmlns="http://www.w3.org/2000/svg">
<g clip-path="url(#clip0_44_4269)">
<path d="M13.8333 2.6665H3.16667C2.98986 2.6665 2.82029 2.73674 2.69526 2.86177C2.57024 2.98679 2.5 3.15636 2.5 3.33317V5.33317C2.5 5.50998 2.57024 5.67955 2.69526 5.80457C2.82029 5.9296 2.98986 5.99984 3.16667 5.99984C3.34348 5.99984 3.51305 5.9296 3.63807 5.80457C3.7631 5.67955 3.83333 5.50998 3.83333 5.33317V3.99984H7.83333V12.6665H6.5C6.32319 12.6665 6.15362 12.7367 6.0286 12.8618C5.90357 12.9868 5.83333 13.1564 5.83333 13.3332C5.83333 13.51 5.90357 13.6796 6.0286 13.8046C6.15362 13.9296 6.32319 13.9998 6.5 13.9998H10.5C10.6768 13.9998 10.8464 13.9296 10.9714 13.8046C11.0964 13.6796 11.1667 13.51 11.1667 13.3332C11.1667 13.1564 11.0964 12.9868 10.9714 12.8618C10.8464 12.7367 10.6768 12.6665 10.5 12.6665H9.16667V3.99984H13.1667V5.33317C13.1667 5.50998 13.2369 5.67955 13.3619 5.80457C13.487 5.9296 13.6565 5.99984 13.8333 5.99984C14.0101 5.99984 14.1797 5.9296 14.3047 5.80457C14.4298 5.67955 14.5 5.50998 14.5 5.33317V3.33317C14.5 3.15636 14.4298 2.98679 14.3047 2.86177C14.1797 2.73674 14.0101 2.6665 13.8333 2.6665Z" fill="black"/>
</g>
<defs>
<clipPath id="clip0_44_4269">
<rect width="16" height="16" fill="white" transform="translate(0.5)"/>
</clipPath>
</defs>
</svg>
